<?xml version="1.0" standalone="no"?>
<!DOCTYPE svg PUBLIC "-//W3C//DTD SVG 20010904//EN"
 "http://www.w3.org/TR/2001/REC-SVG-20010904/DTD/svg10.dtd">
<svg version="1.0" xmlns="http://www.w3.org/2000/svg"
 width="512.000000pt" height="512.000000pt" viewBox="0 0 512.000000 512.000000"
 preserveAspectRatio="xMidYMid meet">

<g transform="translate(0.000000,512.000000) scale(0.100000,-0.100000)"
fill="#000000" stroke="none">
<path d="M2295 4959 c-441 -53 -846 -218 -1210 -492 -103 -78 -354 -329 -432
-432 -227 -301 -381 -637 -453 -983 -42 -205 -54 -346 -47 -566 6 -202 27
-356 71 -526 248 -945 1000 -1623 1981 -1787 157 -26 553 -26 710 0 266 45
489 116 715 228 712 354 1183 999 1317 1804 14 86 18 164 18 355 0 323 -25
483 -122 775 -212 636 -707 1173 -1328 1440 -183 78 -357 129 -570 166 -138
24 -513 34 -650 18z m1051 -2334 c310 -698 564 -1273 564 -1277 0 -5 -159 -8
-353 -8 l-354 0 -313 747 c-172 412 -321 763 -330 781 l-16 34 -217 -499 -216
-498 222 -3 223 -2 101 -278 101 -277 -389 -3 c-214 -1 -564 -1 -777 0 l-388
3 538 1230 c295 677 547 1251 558 1278 l21 47 230 -2 230 -3 565 -1270z"/>
<path d="M2377 3723 c-26 -58 -974 -2227 -984 -2250 -4 -10 118 -13 591 -13
328 0 596 3 596 6 0 6 -51 150 -92 262 l-19 52 -270 0 c-222 0 -270 2 -267 13
9 39 614 1415 619 1409 3 -4 170 -397 370 -874 l364 -868 223 0 c122 0 222 1
222 3 0 2 -231 522 -514 1157 l-514 1155 -150 3 -149 3 -26 -58z"/>
</g>
</svg>
